<?xml version="1.0" encoding="iso-8859-1"?>
<!-- Generator: Adobe Illustrator 19.0.0, SVG Export Plug-In . SVG Version: 6.00 Build 0)  -->
<svg xmlns="http://www.w3.org/2000/svg" xmlns:xlink="http://www.w3.org/1999/xlink" version="1.1" id="Capa_1" x="0px" y="0px" viewBox="0 0 512 512" style="enable-background:new 0 0 512 512;" xml:space="preserve" width="512px" height="512px">
<g>
	<g>
		<path d="M273.863,118.704h-35.045v54.423h35.045c14.998,0,27.206-12.208,27.206-27.206    C301.069,130.912,288.861,118.704,273.863,118.704z" fill="#006DF0"/>
	</g>
</g>
<g>
	<g>
		<path d="M255.995,0C158.648,0,79.449,79.199,79.449,176.556c0,39.795,27.916,105.826,82.959,196.273    c40.255,66.141,81.079,122.073,81.489,122.623L255.995,512l12.108-16.548c0.41-0.55,41.234-56.482,81.489-122.623    c55.042-90.448,82.959-156.479,82.959-196.273C432.551,79.199,353.352,0,255.995,0z M273.863,203.122h-35.045v77.249h-29.996    V88.708h65.041c31.536,0,57.202,25.666,57.202,57.212C331.065,177.456,305.398,203.122,273.863,203.122z" fill="#006DF0"/>
	</g>
</g>
<g>
</g>
<g>
</g>
<g>
</g>
<g>
</g>
<g>
</g>
<g>
</g>
<g>
</g>
<g>
</g>
<g>
</g>
<g>
</g>
<g>
</g>
<g>
</g>
<g>
</g>
<g>
</g>
<g>
</g>
</svg>
